<?xml version="1.0" standalone="no"?>
<!DOCTYPE svg PUBLIC "-//W3C//DTD SVG 20010904//EN"
 "http://www.w3.org/TR/2001/REC-SVG-20010904/DTD/svg10.dtd">
<svg version="1.0" xmlns="http://www.w3.org/2000/svg"
 width="1200.000000pt" height="1200.000000pt" viewBox="0 0 1200.000000 1200.000000"
 preserveAspectRatio="xMidYMid meet">
<metadata>
Created by potrace 1.11, written by Peter Selinger 2001-2013
</metadata>
<g transform="translate(0.000000,1200.000000) scale(0.100000,-0.100000)"
fill="#000000" stroke="none">
<path d="M1755 10883 c-310 -43 -566 -285 -629 -595 -14 -70 -16 -490 -16
-4293 0 -3803 2 -4223 16 -4293 60 -295 291 -526 586 -586 70 -14 490 -16
4293 -16 3803 0 4223 2 4293 16 295 60 526 291 586 586 14 70 16 490 16 4293
0 3803 -2 4223 -16 4293 -57 277 -257 492 -540 579 -56 17 -252 18 -4309 19
-2337 1 -4263 -1 -4280 -3z m1665 -4368 l0 -515 515 0 515 0 0 -515 0 -515
-515 0 -515 0 0 515 0 515 -515 0 -515 0 0 515 0 515 515 0 515 0 0 -515z
m2070 0 l0 -515 515 0 515 0 0 515 0 515 515 0 515 0 0 -515 0 -515 515 0 515
0 0 -515 0 -515 -515 0 -515 0 0 515 0 515 -515 0 -515 0 0 -515 0 -515 -515
0 -515 0 0 515 0 515 -515 0 -515 0 0 515 0 515 515 0 515 0 0 -515z m4130 0
l0 -515 -515 0 -515 0 0 515 0 515 515 0 515 0 0 -515z"/>
</g>
</svg>
